<svg xmlns="http://www.w3.org/2000/svg" viewBox="0 0 260 1000">
<defs><linearGradient id="s" x1="0" y1="0" x2="0" y2="1"><stop stop-color="#0b2232"/><stop offset=".55" stop-color="#06131e"/><stop offset="1" stop-color="#02080e"/></linearGradient>
<radialGradient id="p" cx="32%" cy="22%" r="72%"><stop stop-color="#7ca4b7"/><stop offset=".22" stop-color="#38596b"/><stop offset=".58" stop-color="#142b39"/><stop offset="1" stop-color="#040b11"/></radialGradient>
<filter id="g"><feGaussianBlur stdDeviation="2"/></filter></defs>
<rect width="260" height="1000" fill="url(#s)"/>
<circle cx="-10" cy="855" r="230" fill="url(#p)" opacity=".86"/>
<path d="M0 660 A230 230 0 0 1 160 645" fill="none" stroke="#71ddff" stroke-width="7" opacity=".5" filter="url(#g)"/>
<g fill="#050a0e" stroke="#3b6278" stroke-opacity=".75">
 <rect x="109" y="55" width="38" height="570" rx="4"/><path d="M128 0 L148 55 H108 Z"/>
 <rect x="64" y="205" width="128" height="28"/><rect x="34" y="255" width="190" height="20"/>
 <rect x="78" y="325" width="100" height="42"/><rect x="55" y="402" width="145" height="22"/>
 <rect x="103" y="625" width="48" height="230"/><rect x="65" y="712" width="125" height="20"/>
 <path d="M80 425 L18 535 L58 547 L109 452 Z"/><path d="M180 425 L242 535 L202 547 L151 452 Z"/>
</g>
<g fill="#ffc163" opacity=".9" filter="url(#g)">
 <rect x="116" y="115" width="6" height="2"/><rect x="125" y="130" width="3" height="2"/><rect x="134" y="145" width="3" height="2"/><rect x="116" y="160" width="3" height="2"/><rect x="125" y="175" width="3" height="2"/><rect x="134" y="190" width="6" height="2"/><rect x="116" y="205" width="3" height="2"/><rect x="125" y="220" width="3" height="2"/><rect x="134" y="235" width="3" height="2"/><rect x="116" y="250" width="3" height="2"/><rect x="125" y="265" width="6" height="2"/><rect x="134" y="280" width="3" height="2"/><rect x="116" y="295" width="3" height="2"/><rect x="125" y="310" width="3" height="2"/><rect x="134" y="325" width="3" height="2"/><rect x="116" y="340" width="6" height="2"/><rect x="125" y="355" width="3" height="2"/><rect x="134" y="370" width="3" height="2"/><rect x="116" y="385" width="3" height="2"/><rect x="125" y="400" width="3" height="2"/><rect x="134" y="415" width="6" height="2"/><rect x="116" y="430" width="3" height="2"/><rect x="125" y="445" width="3" height="2"/><rect x="134" y="460" width="3" height="2"/><rect x="116" y="475" width="3" height="2"/><rect x="125" y="490" width="6" height="2"/><rect x="134" y="505" width="3" height="2"/><rect x="116" y="520" width="3" height="2"/><rect x="125" y="535" width="3" height="2"/><rect x="134" y="550" width="3" height="2"/><rect x="116" y="565" width="6" height="2"/><rect x="125" y="580" width="3" height="2"/><rect x="134" y="595" width="3" height="2"/><rect x="116" y="610" width="3" height="2"/><rect x="125" y="625" width="3" height="2"/><rect x="134" y="640" width="6" height="2"/>
</g>
<g fill="#c5f1ff" opacity=".45"><circle cx="20" cy="40" r="1.4"/><circle cx="91" cy="171" r="0.8"/><circle cx="162" cy="302" r="0.8"/><circle cx="233" cy="433" r="1.4"/><circle cx="79" cy="564" r="0.8"/><circle cx="150" cy="695" r="0.8"/><circle cx="221" cy="826" r="1.4"/><circle cx="67" cy="57" r="0.8"/><circle cx="138" cy="188" r="0.8"/><circle cx="209" cy="319" r="1.4"/><circle cx="55" cy="450" r="0.8"/><circle cx="126" cy="581" r="0.8"/><circle cx="197" cy="712" r="1.4"/><circle cx="43" cy="843" r="0.8"/><circle cx="114" cy="74" r="0.8"/><circle cx="185" cy="205" r="1.4"/><circle cx="31" cy="336" r="0.8"/><circle cx="102" cy="467" r="0.8"/><circle cx="173" cy="598" r="1.4"/><circle cx="244" cy="729" r="0.8"/><circle cx="90" cy="860" r="0.8"/><circle cx="161" cy="91" r="1.4"/></g>
</svg>